<?xml version="1.0" encoding="iso-8859-1"?>
<!-- Generator: Adobe Illustrator 23.0.6, SVG Export Plug-In . SVG Version: 6.00 Build 0)  -->
<svg version="1.1" id="Layer_1" xmlns="http://www.w3.org/2000/svg" xmlns:xlink="http://www.w3.org/1999/xlink" x="0px" y="0px"
	 width="349.712px" height="58.347px" viewBox="0 0 349.712 58.347" enable-background="new 0 0 349.712 58.347"
	 xml:space="preserve">
<g>
	<path fill="#231039" d="M328.013,40.2c0.339,3.102,3.38,8.282,11.329,8.282c6.991,0,10.37-4.617,10.37-8.79
		c0-4.061-2.703-7.219-7.887-8.347l-4.176-0.846c-1.692-0.339-2.764-1.41-2.764-2.877c0-1.692,1.636-3.158,3.949-3.158
		c3.668,0,4.853,2.538,5.078,4.117l5.519-1.579c-0.451-2.707-2.929-7.662-10.597-7.662c-5.695,0-10.088,4.054-10.088,8.846
		c0,3.779,2.534,6.938,7.38,8.009l4.063,0.903c2.2,0.451,3.216,1.579,3.216,3.045c0,1.692-1.411,3.159-4.119,3.159
		c-3.499,0-5.359-2.2-5.584-4.681L328.013,40.2z M317.577,11.786h-5.914v4.115c0,2.425-1.296,4.285-4.227,4.285h-1.41v5.8h5.074
		v13.819c0,5.128,3.154,8.169,8.225,8.169c2.368,0,3.608-0.45,4.003-0.619v-5.406c-0.282,0.056-1.354,0.225-2.256,0.225
		c-2.424,0-3.495-1.015-3.495-3.44V25.986h5.694v-5.8h-5.694V11.786z M296.611,33.885c0,5.244-3.046,8.626-7.39,8.626
		c-4.286,0-7.389-3.382-7.389-8.626c0-5.136,3.103-8.52,7.389-8.52c4.4,0,7.39,3.384,7.39,8.517V33.885z M281.889,58.347V44.539
		c1.41,2.083,4.399,3.773,8.348,3.773c7.894,0,12.907-6.195,12.907-14.43c0-8.122-4.562-14.317-12.682-14.317
		c-4.23,0-7.389,1.971-8.742,4.336v-3.716h-6.308v38.162H281.889z M259.457,10.545c0,2.368,1.916,4.229,4.225,4.229
		c2.365,0,4.281-1.861,4.281-4.229s-1.916-4.285-4.281-4.285C261.373,6.26,259.457,8.177,259.457,10.545 M266.948,20.186h-6.477
		v27.45h6.477V20.186z M254.996,20.017c-0.282-0.057-0.958-0.169-1.748-0.169c-3.608,0-6.652,1.746-7.949,4.731v-4.393h-6.364v27.45
		h6.533V34.559c0-5.134,2.312-8.065,7.386-8.065c0.676,0,1.409,0.056,2.142,0.169V20.017z M220.38,25.366
		c4.172,0,6.033,2.707,6.653,5.133l5.863-2.144c-1.127-4.397-5.187-9.015-12.572-9.015c-7.893,0-14.032,6.082-14.032,14.543
		c0,8.347,6.139,14.599,14.201,14.599c7.216,0,11.332-4.674,12.629-8.959l-5.751-2.087c-0.62,2.087-2.593,5.076-6.878,5.076
		c-4.116,0-7.668-3.102-7.668-8.629C212.825,28.354,216.377,25.366,220.38,25.366 M201.887,17.022
		c-0.901-4.455-4.562-10.199-13.979-10.199c-7.445,0-13.584,5.519-13.584,12.229c0,5.978,4.055,9.981,10.143,11.222l5.641,1.184
		c3.441,0.734,5.359,2.82,5.359,5.414c0,3.102-2.482,5.527-7.277,5.527c-5.754,0-8.741-3.835-9.135-8.008l-6.309,1.804
		c0.62,5.753,5.295,12.286,15.444,12.286c9.135,0,14.148-5.913,14.148-12.116c0-5.64-3.774-10.095-10.82-11.505l-5.754-1.184
		c-3.102-0.677-4.681-2.594-4.681-5.132c0-3.045,2.82-5.752,6.881-5.752c5.359,0,7.446,3.666,7.84,6.147L201.887,17.022z
		 M168.682,28.247h-15.899v5.8h15.899V28.247z M126.289,40.2c0.338,3.102,3.38,8.282,11.329,8.282c6.991,0,10.37-4.617,10.37-8.79
		c0-4.061-2.703-7.219-7.887-8.347l-4.176-0.846c-1.692-0.339-2.765-1.41-2.765-2.877c0-1.692,1.637-3.158,3.95-3.158
		c3.668,0,4.852,2.538,5.078,4.117l5.519-1.579c-0.451-2.707-2.929-7.662-10.597-7.662c-5.695,0-10.088,4.054-10.088,8.846
		c0,3.779,2.534,6.938,7.38,8.009l4.062,0.903c2.201,0.451,3.217,1.579,3.217,3.045c0,1.692-1.411,3.159-4.119,3.159
		c-3.499,0-5.359-2.2-5.584-4.681L126.289,40.2z M108.527,48.481c8.402,0,13.584-4.505,13.584-10.596
		c0-4.174-2.929-7.613-6.759-8.965c3.491-1.295,5.913-4.79,5.913-8.344c0-6.091-5.407-10.314-12.738-10.314
		c-7.332,0-12.682,4.223-12.682,10.314c0,3.611,2.422,7.049,5.913,8.344c-3.887,1.352-6.759,4.791-6.759,8.965
		C94.999,43.977,100.181,48.481,108.527,48.481z M108.527,42.793c-4.4,0-6.826-2.595-6.826-5.585s2.426-5.641,6.826-5.641
		c4.456,0,6.882,2.651,6.882,5.641S112.983,42.793,108.527,42.793z M108.527,26.332c-3.611-0.057-5.98-2.314-5.98-5.36
		c0-2.765,2.256-5.191,5.98-5.191c3.723,0,6.036,2.426,6.036,5.191C114.563,24.018,112.193,26.275,108.527,26.332 M91.892,20.186
		h-8.683L72.666,31.289V6.824H66.19v40.812h6.476v-7.666l3.383-3.551l8.062,11.217h8.006L80.616,31.796L91.892,20.186z
		 M45.608,19.34c-8.178,0-14.204,6.139-14.204,14.543c0,8.46,6.026,14.599,14.204,14.599c8.234,0,14.26-6.139,14.26-14.599
		C59.868,25.479,53.842,19.34,45.608,19.34 M6.815,25.88V13.639h7.277c4.174,0,6.882,2.426,6.882,6.149
		c0,3.667-2.708,6.092-6.882,6.092H6.815z M20.184,47.635h7.661L18.83,31.174c5.579-1.352,9.015-5.688,9.015-11.386
		c0-6.768-4.787-12.118-12.512-12.118H0v39.966h6.815V31.849h4.964L20.184,47.635z"/>
	<path fill="#FFFFFF" d="M57.244,35.212v-0.029v-0.001v-0.029c-0.881-0.077-1.576-1.189-1.625-2.599h-0.02h-0.017
		c-0.049,1.41-0.742,2.522-1.625,2.599v0.03v0.029c0.881,0.077,1.576,1.189,1.625,2.599h0.017h0.002h0.018
		C55.668,36.401,56.363,35.289,57.244,35.212"/>
	<path fill="#FFFFFF" d="M37.684,32.235v-0.029v-0.001v-0.029c-0.881-0.077-1.576-1.189-1.625-2.599h-0.02h-0.017
		c-0.049,1.41-0.742,2.522-1.625,2.599v0.03v0.029c0.881,0.077,1.576,1.189,1.625,2.599h0.017h0.002h0.018
		C36.108,33.424,36.803,32.312,37.684,32.235"/>
	<path fill="#FFFFFF" d="M51.889,42.216v-0.029v-0.001v-0.029c-0.881-0.077-1.576-1.189-1.625-2.599h-0.02h-0.017
		c-0.049,1.41-0.742,2.522-1.625,2.599v0.03v0.029c0.881,0.077,1.576,1.189,1.625,2.599h0.017h0.002h0.018
		C50.313,43.405,51.008,42.293,51.889,42.216"/>
	<path fill="#F8BF15" d="M44.733,48.462c3.907-5.638,2.251-10.635,2.251-10.635l-2.709-1.524l0.001-0.004l-0.012-0.002l-0.011-0.006
		l-0.001,0.004l-3.085-0.386c0,0-4.165,2.934-4.503,9.558C38.858,47.223,41.622,48.29,44.733,48.462"/>
	<path fill="#266A8B" d="M37.763,25.674l8.621,2.843c0.766-2.326-0.542-4.847-2.922-5.632C41.081,22.1,38.53,23.349,37.763,25.674"
		/>
	<path fill="#266A8B" d="M42.452,32.206l1.483-4.497l-6.172-2.035l-1.998,6.059c1.365-0.722,3.241-0.868,5.107-0.253
		C41.443,31.668,41.972,31.915,42.452,32.206"/>
	<path fill="#266A8B" d="M56.131,31.731l-8.621-2.843c0.767-2.325,3.318-3.574,5.699-2.789
		C55.588,26.885,56.897,29.406,56.131,31.731"/>
	<path fill="#266A8B" d="M48.476,34.192l1.483-4.497l6.172,2.035l-1.999,6.06c-0.667-1.393-2.088-2.626-3.954-3.242
		C49.607,34.36,49.034,34.244,48.476,34.192"/>
	<path fill="#FAA737" d="M41.721,43.895l2.487-7.543l-0.923-0.115c0,0-2.221,1.559-2.078,5.117
		C41.273,42.985,41.497,43.649,41.721,43.895 M45.02,36.809l-0.811-0.457l-2.488,7.543c0.327-0.065,0.902-0.465,1.925-1.737
		C45.878,39.383,45.02,36.809,45.02,36.809"/>
	<path fill="#F36D21" d="M48.638,23.572L56.38,0.093L56.099,0c0,0-9.24,5.178-14.587,21.222L48.638,23.572z"/>
	<path fill="#F36D21" d="M48.639,23.572L56.38,0.093l0.281,0.093c0,0,4.348,9.658-0.897,25.736L48.639,23.572z"/>
	<path fill="#F36D21" d="M49.73,38.368c2.122-3.121,4.286-7.199,6.035-12.446l-7.126-2.35l-7.126-2.35
		c-1.716,5.258-2.402,9.823-2.553,13.595L49.73,38.368z"/>
	<path fill="#F36D21" d="M43.937,37.83c2.975,0.981,5.578,1.197,5.814,0.481c0.236-0.715-1.985-2.09-4.96-3.071
		c-2.975-0.981-5.578-1.196-5.814-0.481C38.741,35.474,40.962,36.849,43.937,37.83"/>
	<path fill="#F68938" d="M55.764,25.922C61.01,9.844,56.662,0.186,56.662,0.186L56.38,0.093L43.936,37.83
		c2.896,0.955,5.432,1.182,5.784,0.535l0.009,0.003C51.851,35.246,54.016,31.168,55.764,25.922"/>
	<path fill="#266A8B" d="M44.225,36.957c0.285,0.094,1.231-1.997,2.113-4.671c0.882-2.673,1.365-4.917,1.08-5.011
		c-0.286-0.094-1.232,1.997-2.113,4.67C44.423,34.619,43.94,36.863,44.225,36.957"/>
	<path fill="#266A8B" d="M51.952,13.522c-2.497-0.823-4.59-1.852-5.734-2.742c-0.676,1.132-1.346,2.367-1.995,3.711
		c0.866,0.989,3.298,2.288,6.326,3.287c3.027,0.998,5.755,1.4,7.04,1.12c0.277-1.467,0.473-2.857,0.603-4.17
		C56.743,14.763,54.449,14.345,51.952,13.522"/>
</g>
<g>
</g>
<g>
</g>
<g>
</g>
<g>
</g>
<g>
</g>
<g>
</g>
</svg>
