<?xml version="1.0" encoding="iso-8859-1"?>
<!-- Generator: Adobe Illustrator 23.0.6, SVG Export Plug-In . SVG Version: 6.00 Build 0)  -->
<svg version="1.1" id="Layer_1" xmlns="http://www.w3.org/2000/svg" xmlns:xlink="http://www.w3.org/1999/xlink" x="0px" y="0px"
	 width="28.464px" height="48.481px" viewBox="0 0 28.464 48.481" enable-background="new 0 0 28.464 48.481" xml:space="preserve">
<g>
	<path fill="#231039" d="M14.204,19.34C6.026,19.34,0,25.479,0,33.882c0,8.46,6.026,14.599,14.204,14.599
		c8.234,0,14.26-6.139,14.26-14.599C28.464,25.479,22.438,19.34,14.204,19.34"/>
	<path fill="#FFFFFF" d="M25.84,35.212v-0.029v-0.001v-0.029c-0.881-0.077-1.576-1.189-1.625-2.599h-0.02h-0.017
		c-0.049,1.41-0.742,2.522-1.625,2.599v0.03v0.029c0.881,0.077,1.576,1.189,1.625,2.599h0.017h0.002h0.018
		C24.264,36.401,24.959,35.289,25.84,35.212"/>
	<path fill="#FFFFFF" d="M6.28,32.235v-0.029v-0.001v-0.029c-0.881-0.077-1.576-1.189-1.625-2.599h-0.02H4.618
		c-0.049,1.41-0.742,2.522-1.625,2.599v0.03v0.029c0.881,0.077,1.576,1.189,1.625,2.599h0.017h0.002h0.018
		C4.704,33.424,5.399,32.312,6.28,32.235"/>
	<path fill="#FFFFFF" d="M20.485,42.216v-0.029v-0.001v-0.029c-0.881-0.077-1.576-1.189-1.625-2.599h-0.02h-0.017
		c-0.049,1.41-0.742,2.522-1.625,2.599v0.03v0.029c0.881,0.077,1.576,1.189,1.625,2.599h0.017h0.002h0.018
		C18.909,43.405,19.604,42.293,20.485,42.216"/>
	<path fill="#F8BF15" d="M13.329,48.462c3.907-5.638,2.251-10.635,2.251-10.635l-2.709-1.524l0.001-0.004l-0.012-0.002l-0.011-0.006
		l-0.001,0.004l-3.085-0.386c0,0-4.165,2.934-4.503,9.558C7.454,47.223,10.218,48.29,13.329,48.462"/>
	<path fill="#266A8B" d="M6.359,25.674l8.621,2.843c0.766-2.326-0.542-4.847-2.922-5.632C9.677,22.1,7.126,23.349,6.359,25.674"/>
	<path fill="#266A8B" d="M11.048,32.206l1.483-4.497l-6.172-2.035l-1.998,6.059c1.365-0.722,3.241-0.868,5.107-0.253
		C10.039,31.668,10.568,31.915,11.048,32.206"/>
	<path fill="#266A8B" d="M24.727,31.731l-8.621-2.843c0.767-2.325,3.318-3.574,5.699-2.789
		C24.184,26.885,25.493,29.406,24.727,31.731"/>
	<path fill="#266A8B" d="M17.072,34.192l1.483-4.497l6.172,2.035l-1.999,6.06c-0.667-1.393-2.088-2.626-3.954-3.242
		C18.203,34.36,17.63,34.244,17.072,34.192"/>
	<path fill="#FAA737" d="M10.317,43.895l2.487-7.543l-0.923-0.115c0,0-2.221,1.559-2.078,5.117
		C9.869,42.985,10.093,43.649,10.317,43.895 M13.616,36.809l-0.811-0.457l-2.488,7.543c0.327-0.065,0.902-0.465,1.925-1.737
		C14.474,39.383,13.616,36.809,13.616,36.809"/>
	<path fill="#F36D21" d="M17.234,23.572l7.742-23.479L24.695,0c0,0-9.24,5.178-14.587,21.222L17.234,23.572z"/>
	<path fill="#F36D21" d="M17.235,23.572l7.742-23.479l0.281,0.093c0,0,4.348,9.658-0.897,25.736L17.235,23.572z"/>
	<path fill="#F36D21" d="M18.326,38.368c2.122-3.121,4.286-7.199,6.035-12.446l-7.126-2.35l-7.126-2.35
		c-1.716,5.258-2.402,9.823-2.553,13.595L18.326,38.368z"/>
	<path fill="#F36D21" d="M12.533,37.83c2.975,0.981,5.578,1.197,5.814,0.481c0.236-0.715-1.985-2.09-4.96-3.071
		c-2.975-0.981-5.578-1.196-5.814-0.481C7.337,35.474,9.558,36.849,12.533,37.83"/>
	<path fill="#F68938" d="M24.36,25.922c5.246-16.078,0.898-25.736,0.898-25.736l-0.282-0.093L12.532,37.83
		c2.896,0.955,5.432,1.182,5.784,0.535l0.009,0.003C20.447,35.246,22.612,31.168,24.36,25.922"/>
	<path fill="#266A8B" d="M12.821,36.957c0.285,0.094,1.231-1.997,2.113-4.671c0.882-2.673,1.365-4.917,1.08-5.011
		c-0.286-0.094-1.232,1.997-2.113,4.67C13.019,34.619,12.536,36.863,12.821,36.957"/>
	<path fill="#266A8B" d="M20.548,13.522c-2.497-0.823-4.59-1.852-5.734-2.742c-0.676,1.132-1.346,2.367-1.995,3.711
		c0.866,0.989,3.298,2.288,6.326,3.287c3.027,0.998,5.755,1.4,7.04,1.12c0.277-1.467,0.473-2.857,0.603-4.17
		C25.339,14.763,23.045,14.345,20.548,13.522"/>
</g>
<g>
</g>
<g>
</g>
<g>
</g>
<g>
</g>
<g>
</g>
<g>
</g>
</svg>
